<svg width="320" height="240" xmlns="http://www.w3.org/2000/svg" xmlns:xlink="http://www.w3.org/1999/xlink">
 <desc/>
 <defs>
  <rect height="8" width="8" id="p"/>
 </defs>
 <g>
  <title>background</title>
  <rect fill="none" id="canvas_background" height="242" width="322" y="-1" x="-1"/>
 </g>
 <g>
  <title>Layer 1</title>
  <use fill="#b8b8b8" stroke="null" transform="matrix(0.615999440237617,0,0,0.6039994276910645,27.55288202414073,19.747648829296395) " id="svg_3" xlink:href="#p" y="48.469438" x="115.011757"/>
  <use fill="#b8b8b8" stroke="null" transform="matrix(0.615999440237617,0,0,0.6039994276910645,27.55288202414073,19.747648829296395) " id="svg_4" xlink:href="#p" y="56.469438" x="115.011757"/>
  <use fill="#b8b8b8" stroke="null" transform="matrix(0.615999440237617,0,0,0.6039994276910645,27.55288202414073,19.747648829296395) " id="svg_5" xlink:href="#p" y="64.469438" x="115.011757"/>
  <use fill="#b8b8b8" stroke="null" transform="matrix(0.615999440237617,0,0,0.6039994276910645,27.55288202414073,19.747648829296395) " id="svg_6" xlink:href="#p" y="72.469438" x="115.011757"/>
  <use fill="#b8b8b8" stroke="null" transform="matrix(0.615999440237617,0,0,0.6039994276910645,27.55288202414073,19.747648829296395) " id="svg_7" xlink:href="#p" y="80.469438" x="115.011757"/>
  <use fill="#b8b8b8" stroke="null" transform="matrix(0.615999440237617,0,0,0.6039994276910645,27.55288202414073,19.747648829296395) " id="svg_8" xlink:href="#p" y="88.469438" x="115.011757"/>
  <use fill="#b8b8b8" stroke="null" transform="matrix(0.615999440237617,0,0,0.6039994276910645,27.55288202414073,19.747648829296395) " id="svg_9" xlink:href="#p" y="96.469438" x="115.011757"/>
  <use fill="#b8b8b8" stroke="null" transform="matrix(0.615999440237617,0,0,0.6039994276910645,27.55288202414073,19.747648829296395) " id="svg_15" xlink:href="#p" y="192.469438" x="115.011757"/>
  <use fill="#b8b8b8" stroke="null" transform="matrix(0.615999440237617,0,0,0.6039994276910645,27.55288202414073,19.747648829296395) " id="svg_16" xlink:href="#p" y="200.469438" x="115.011757"/>
  <use fill="#b8b8b8" stroke="null" transform="matrix(0.615999440237617,0,0,0.6039994276910645,27.55288202414073,19.747648829296395) " id="svg_17" xlink:href="#p" y="208.469438" x="115.011757"/>
  <use fill="#b8b8b8" stroke="null" transform="matrix(0.615999440237617,0,0,0.6039994276910645,27.55288202414073,19.747648829296395) " id="svg_18" xlink:href="#p" y="216.469438" x="115.011757"/>
  <use fill="#b8b8b8" stroke="null" transform="matrix(0.615999440237617,0,0,0.6039994276910645,27.55288202414073,19.747648829296395) " id="svg_19" xlink:href="#p" y="224.469438" x="115.011757"/>
  <use fill="#b8b8b8" stroke="null" transform="matrix(0.615999440237617,0,0,0.6039994276910645,27.55288202414073,19.747648829296395) " id="svg_20" xlink:href="#p" y="232.469438" x="115.011757"/>
  <use fill="#b8b8b8" stroke="null" transform="matrix(0.615999440237617,0,0,0.6039994276910645,27.55288202414073,19.747648829296395) " id="svg_21" xlink:href="#p" y="240.469438" x="115.011757"/>
  <use fill="#b8b8b8" stroke="null" transform="matrix(0.615999440237617,0,0,0.6039994276910645,27.55288202414073,19.747648829296395) " id="svg_22" xlink:href="#p" y="48.469438" x="123.011757"/>
  <use fill="#b8b8b8" stroke="null" transform="matrix(0.615999440237617,0,0,0.6039994276910645,27.55288202414073,19.747648829296395) " id="svg_23" xlink:href="#p" y="96.469438" x="123.011757"/>
  <use fill="#b8b8b8" stroke="null" transform="matrix(0.615999440237617,0,0,0.6039994276910645,27.55288202414073,19.747648829296395) " id="svg_30" xlink:href="#p" y="192.469438" x="123.011757"/>
  <use fill="#b8b8b8" stroke="null" transform="matrix(0.615999440237617,0,0,0.6039994276910645,27.55288202414073,19.747648829296395) " id="svg_31" xlink:href="#p" y="240.469438" x="123.011757"/>
  <use fill="#b8b8b8" stroke="null" transform="matrix(0.615999440237617,0,0,0.6039994276910645,27.55288202414073,19.747648829296395) " id="svg_32" xlink:href="#p" y="48.469438" x="131.011757"/>
  <use fill="#b8b8b8" stroke="null" transform="matrix(0.615999440237617,0,0,0.6039994276910645,27.55288202414073,19.747648829296395) " id="svg_33" xlink:href="#p" y="64.469438" x="131.011757"/>
  <use fill="#b8b8b8" stroke="null" transform="matrix(0.615999440237617,0,0,0.6039994276910645,27.55288202414073,19.747648829296395) " id="svg_34" xlink:href="#p" y="72.469438" x="131.011757"/>
  <use fill="#b8b8b8" stroke="null" transform="matrix(0.615999440237617,0,0,0.6039994276910645,27.55288202414073,19.747648829296395) " id="svg_35" xlink:href="#p" y="80.469438" x="131.011757"/>
  <use fill="#b8b8b8" stroke="null" transform="matrix(0.615999440237617,0,0,0.6039994276910645,27.55288202414073,19.747648829296395) " id="svg_36" xlink:href="#p" y="96.469438" x="131.011757"/>
  <use fill="#b8b8b8" stroke="null" transform="matrix(0.615999440237617,0,0,0.6039994276910645,27.55288202414073,19.747648829296395) " id="svg_41" xlink:href="#p" y="192.469438" x="131.011757"/>
  <use fill="#b8b8b8" stroke="null" transform="matrix(0.615999440237617,0,0,0.6039994276910645,27.55288202414073,19.747648829296395) " id="svg_42" xlink:href="#p" y="208.469438" x="131.011757"/>
  <use fill="#b8b8b8" stroke="null" transform="matrix(0.615999440237617,0,0,0.6039994276910645,27.55288202414073,19.747648829296395) " id="svg_43" xlink:href="#p" y="216.469438" x="131.011757"/>
  <use fill="#b8b8b8" stroke="null" transform="matrix(0.615999440237617,0,0,0.6039994276910645,27.55288202414073,19.747648829296395) " id="svg_44" xlink:href="#p" y="224.469438" x="131.011757"/>
  <use fill="#b8b8b8" stroke="null" transform="matrix(0.615999440237617,0,0,0.6039994276910645,27.55288202414073,19.747648829296395) " id="svg_45" xlink:href="#p" y="240.469438" x="131.011757"/>
  <use fill="#b8b8b8" stroke="null" transform="matrix(0.615999440237617,0,0,0.6039994276910645,27.55288202414073,19.747648829296395) " id="svg_46" xlink:href="#p" y="48.469438" x="139.011757"/>
  <use fill="#b8b8b8" stroke="null" transform="matrix(0.615999440237617,0,0,0.6039994276910645,27.55288202414073,19.747648829296395) " id="svg_47" xlink:href="#p" y="64.469438" x="139.011757"/>
  <use fill="#b8b8b8" stroke="null" transform="matrix(0.615999440237617,0,0,0.6039994276910645,27.55288202414073,19.747648829296395) " id="svg_48" xlink:href="#p" y="72.469438" x="139.011757"/>
  <use fill="#b8b8b8" stroke="null" transform="matrix(0.615999440237617,0,0,0.6039994276910645,27.55288202414073,19.747648829296395) " id="svg_49" xlink:href="#p" y="80.469438" x="139.011757"/>
  <use fill="#b8b8b8" stroke="null" transform="matrix(0.615999440237617,0,0,0.6039994276910645,27.55288202414073,19.747648829296395) " id="svg_50" xlink:href="#p" y="96.469438" x="139.011757"/>
  <use fill="#b8b8b8" stroke="null" transform="matrix(0.615999440237617,0,0,0.6039994276910645,27.55288202414073,19.747648829296395) " id="svg_55" xlink:href="#p" y="192.469438" x="139.011757"/>
  <use fill="#b8b8b8" stroke="null" transform="matrix(0.615999440237617,0,0,0.6039994276910645,27.55288202414073,19.747648829296395) " id="svg_56" xlink:href="#p" y="208.469438" x="139.011757"/>
  <use fill="#b8b8b8" stroke="null" transform="matrix(0.615999440237617,0,0,0.6039994276910645,27.55288202414073,19.747648829296395) " id="svg_57" xlink:href="#p" y="216.469438" x="139.011757"/>
  <use fill="#b8b8b8" stroke="null" transform="matrix(0.615999440237617,0,0,0.6039994276910645,27.55288202414073,19.747648829296395) " id="svg_58" xlink:href="#p" y="224.469438" x="139.011757"/>
  <use fill="#b8b8b8" stroke="null" transform="matrix(0.615999440237617,0,0,0.6039994276910645,27.55288202414073,19.747648829296395) " id="svg_59" xlink:href="#p" y="240.469438" x="139.011757"/>
  <use fill="#b8b8b8" stroke="null" transform="matrix(0.615999440237617,0,0,0.6039994276910645,27.55288202414073,19.747648829296395) " id="svg_60" xlink:href="#p" y="48.469438" x="147.011757"/>
  <use fill="#b8b8b8" stroke="null" transform="matrix(0.615999440237617,0,0,0.6039994276910645,27.55288202414073,19.747648829296395) " id="svg_61" xlink:href="#p" y="64.469438" x="147.011757"/>
  <use fill="#b8b8b8" stroke="null" transform="matrix(0.615999440237617,0,0,0.6039994276910645,27.55288202414073,19.747648829296395) " id="svg_62" xlink:href="#p" y="72.469438" x="147.011757"/>
  <use fill="#b8b8b8" stroke="null" transform="matrix(0.615999440237617,0,0,0.6039994276910645,27.55288202414073,19.747648829296395) " id="svg_63" xlink:href="#p" y="80.469438" x="147.011757"/>
  <use fill="#b8b8b8" stroke="null" transform="matrix(0.615999440237617,0,0,0.6039994276910645,27.55288202414073,19.747648829296395) " id="svg_64" xlink:href="#p" y="96.469438" x="147.011757"/>
  <use fill="#b8b8b8" stroke="null" transform="matrix(0.615999440237617,0,0,0.6039994276910645,27.55288202414073,19.747648829296395) " id="svg_70" xlink:href="#p" y="192.469438" x="147.011757"/>
  <use fill="#b8b8b8" stroke="null" transform="matrix(0.615999440237617,0,0,0.6039994276910645,27.55288202414073,19.747648829296395) " id="svg_71" xlink:href="#p" y="208.469438" x="147.011757"/>
  <use fill="#b8b8b8" stroke="null" transform="matrix(0.615999440237617,0,0,0.6039994276910645,27.55288202414073,19.747648829296395) " id="svg_72" xlink:href="#p" y="216.469438" x="147.011757"/>
  <use fill="#b8b8b8" stroke="null" transform="matrix(0.615999440237617,0,0,0.6039994276910645,27.55288202414073,19.747648829296395) " id="svg_73" xlink:href="#p" y="224.469438" x="147.011757"/>
  <use fill="#b8b8b8" stroke="null" transform="matrix(0.615999440237617,0,0,0.6039994276910645,27.55288202414073,19.747648829296395) " id="svg_74" xlink:href="#p" y="240.469438" x="147.011757"/>
  <use fill="#b8b8b8" stroke="null" transform="matrix(0.615999440237617,0,0,0.6039994276910645,27.55288202414073,19.747648829296395) " id="svg_75" xlink:href="#p" y="48.469438" x="155.011757"/>
  <use fill="#b8b8b8" stroke="null" transform="matrix(0.615999440237617,0,0,0.6039994276910645,27.55288202414073,19.747648829296395) " id="svg_76" xlink:href="#p" y="96.469438" x="155.011757"/>
  <use fill="#b8b8b8" stroke="null" transform="matrix(0.615999440237617,0,0,0.6039994276910645,27.55288202414073,19.747648829296395) " id="svg_79" xlink:href="#p" y="192.469438" x="155.011757"/>
  <use fill="#b8b8b8" stroke="null" transform="matrix(0.615999440237617,0,0,0.6039994276910645,27.55288202414073,19.747648829296395) " id="svg_80" xlink:href="#p" y="240.469438" x="155.011757"/>
  <use fill="#b8b8b8" stroke="null" transform="matrix(0.615999440237617,0,0,0.6039994276910645,27.55288202414073,19.747648829296395) " id="svg_81" xlink:href="#p" y="48.469438" x="163.011757"/>
  <use fill="#b8b8b8" stroke="null" transform="matrix(0.615999440237617,0,0,0.6039994276910645,27.55288202414073,19.747648829296395) " id="svg_82" xlink:href="#p" y="56.469438" x="163.011757"/>
  <use fill="#b8b8b8" stroke="null" transform="matrix(0.615999440237617,0,0,0.6039994276910645,27.55288202414073,19.747648829296395) " id="svg_83" xlink:href="#p" y="64.469438" x="163.011757"/>
  <use fill="#b8b8b8" stroke="null" transform="matrix(0.615999440237617,0,0,0.6039994276910645,27.55288202414073,19.747648829296395) " id="svg_84" xlink:href="#p" y="72.469438" x="163.011757"/>
  <use fill="#b8b8b8" stroke="null" transform="matrix(0.615999440237617,0,0,0.6039994276910645,27.55288202414073,19.747648829296395) " id="svg_85" xlink:href="#p" y="80.469438" x="163.011757"/>
  <use fill="#b8b8b8" stroke="null" transform="matrix(0.615999440237617,0,0,0.6039994276910645,27.55288202414073,19.747648829296395) " id="svg_86" xlink:href="#p" y="88.469438" x="163.011757"/>
  <use fill="#b8b8b8" stroke="null" transform="matrix(0.615999440237617,0,0,0.6039994276910645,27.55288202414073,19.747648829296395) " id="svg_87" xlink:href="#p" y="96.469438" x="163.011757"/>
  <use fill="#b8b8b8" stroke="null" transform="matrix(0.615999440237617,0,0,0.6039994276910645,27.55288202414073,19.747648829296395) " id="svg_93" xlink:href="#p" y="192.469438" x="163.011757"/>
  <use fill="#b8b8b8" stroke="null" transform="matrix(0.615999440237617,0,0,0.6039994276910645,27.55288202414073,19.747648829296395) " id="svg_94" xlink:href="#p" y="200.469438" x="163.011757"/>
  <use fill="#b8b8b8" stroke="null" transform="matrix(0.615999440237617,0,0,0.6039994276910645,27.55288202414073,19.747648829296395) " id="svg_95" xlink:href="#p" y="208.469438" x="163.011757"/>
  <use fill="#b8b8b8" stroke="null" transform="matrix(0.615999440237617,0,0,0.6039994276910645,27.55288202414073,19.747648829296395) " id="svg_96" xlink:href="#p" y="216.469438" x="163.011757"/>
  <use fill="#b8b8b8" stroke="null" transform="matrix(0.615999440237617,0,0,0.6039994276910645,27.55288202414073,19.747648829296395) " id="svg_97" xlink:href="#p" y="224.469438" x="163.011757"/>
  <use fill="#b8b8b8" stroke="null" transform="matrix(0.615999440237617,0,0,0.6039994276910645,27.55288202414073,19.747648829296395) " id="svg_98" xlink:href="#p" y="232.469438" x="163.011757"/>
  <use fill="#b8b8b8" stroke="null" transform="matrix(0.615999440237617,0,0,0.6039994276910645,27.55288202414073,19.747648829296395) " id="svg_99" xlink:href="#p" y="240.469438" x="163.011757"/>
  <use fill="#b8b8b8" stroke="null" transform="matrix(0.615999440237617,0,0,0.6039994276910645,27.55288202414073,19.747648829296395) " id="svg_218" xlink:href="#p" y="48.469438" x="259.011757"/>
  <use fill="#b8b8b8" stroke="null" transform="matrix(0.615999440237617,0,0,0.6039994276910645,27.55288202414073,19.747648829296395) " id="svg_219" xlink:href="#p" y="56.469438" x="259.011757"/>
  <use fill="#b8b8b8" stroke="null" transform="matrix(0.615999440237617,0,0,0.6039994276910645,27.55288202414073,19.747648829296395) " id="svg_220" xlink:href="#p" y="64.469438" x="259.011757"/>
  <use fill="#b8b8b8" stroke="null" transform="matrix(0.615999440237617,0,0,0.6039994276910645,27.55288202414073,19.747648829296395) " id="svg_221" xlink:href="#p" y="72.469438" x="259.011757"/>
  <use fill="#b8b8b8" stroke="null" transform="matrix(0.615999440237617,0,0,0.6039994276910645,27.55288202414073,19.747648829296395) " id="svg_222" xlink:href="#p" y="80.469438" x="259.011757"/>
  <use fill="#b8b8b8" stroke="null" transform="matrix(0.615999440237617,0,0,0.6039994276910645,27.55288202414073,19.747648829296395) " id="svg_223" xlink:href="#p" y="88.469438" x="259.011757"/>
  <use fill="#b8b8b8" stroke="null" transform="matrix(0.615999440237617,0,0,0.6039994276910645,27.55288202414073,19.747648829296395) " id="svg_224" xlink:href="#p" y="96.469438" x="259.011757"/>
  <use fill="#b8b8b8" stroke="null" transform="matrix(0.615999440237617,0,0,0.6039994276910645,27.55288202414073,19.747648829296395) " id="svg_236" xlink:href="#p" y="48.469438" x="267.011757"/>
  <use fill="#b8b8b8" stroke="null" transform="matrix(0.615999440237617,0,0,0.6039994276910645,27.55288202414073,19.747648829296395) " id="svg_237" xlink:href="#p" y="96.469438" x="267.011757"/>
  <use fill="#b8b8b8" stroke="null" transform="matrix(0.615999440237617,0,0,0.6039994276910645,27.55288202414073,19.747648829296395) " id="svg_246" xlink:href="#p" y="48.469438" x="275.011757"/>
  <use fill="#b8b8b8" stroke="null" transform="matrix(0.615999440237617,0,0,0.6039994276910645,27.55288202414073,19.747648829296395) " id="svg_247" xlink:href="#p" y="64.469438" x="275.011757"/>
  <use fill="#b8b8b8" stroke="null" transform="matrix(0.615999440237617,0,0,0.6039994276910645,27.55288202414073,19.747648829296395) " id="svg_248" xlink:href="#p" y="72.469438" x="275.011757"/>
  <use fill="#b8b8b8" stroke="null" transform="matrix(0.615999440237617,0,0,0.6039994276910645,27.55288202414073,19.747648829296395) " id="svg_249" xlink:href="#p" y="80.469438" x="275.011757"/>
  <use fill="#b8b8b8" stroke="null" transform="matrix(0.615999440237617,0,0,0.6039994276910645,27.55288202414073,19.747648829296395) " id="svg_250" xlink:href="#p" y="96.469438" x="275.011757"/>
  <use fill="#b8b8b8" stroke="null" transform="matrix(0.615999440237617,0,0,0.6039994276910645,27.55288202414073,19.747648829296395) " id="svg_261" xlink:href="#p" y="48.469438" x="283.011757"/>
  <use fill="#b8b8b8" stroke="null" transform="matrix(0.615999440237617,0,0,0.6039994276910645,27.55288202414073,19.747648829296395) " id="svg_262" xlink:href="#p" y="64.469438" x="283.011757"/>
  <use fill="#b8b8b8" stroke="null" transform="matrix(0.615999440237617,0,0,0.6039994276910645,27.55288202414073,19.747648829296395) " id="svg_263" xlink:href="#p" y="72.469438" x="283.011757"/>
  <use fill="#b8b8b8" stroke="null" transform="matrix(0.615999440237617,0,0,0.6039994276910645,27.55288202414073,19.747648829296395) " id="svg_264" xlink:href="#p" y="80.469438" x="283.011757"/>
  <use fill="#b8b8b8" stroke="null" transform="matrix(0.615999440237617,0,0,0.6039994276910645,27.55288202414073,19.747648829296395) " id="svg_265" xlink:href="#p" y="96.469438" x="283.011757"/>
  <use fill="#b8b8b8" stroke="null" transform="matrix(0.615999440237617,0,0,0.6039994276910645,27.55288202414073,19.747648829296395) " id="svg_272" xlink:href="#p" y="48.469438" x="291.011757"/>
  <use fill="#b8b8b8" stroke="null" transform="matrix(0.615999440237617,0,0,0.6039994276910645,27.55288202414073,19.747648829296395) " id="svg_273" xlink:href="#p" y="64.469438" x="291.011757"/>
  <use fill="#b8b8b8" stroke="null" transform="matrix(0.615999440237617,0,0,0.6039994276910645,27.55288202414073,19.747648829296395) " id="svg_274" xlink:href="#p" y="72.469438" x="291.011757"/>
  <use fill="#b8b8b8" stroke="null" transform="matrix(0.615999440237617,0,0,0.6039994276910645,27.55288202414073,19.747648829296395) " id="svg_275" xlink:href="#p" y="80.469438" x="291.011757"/>
  <use fill="#b8b8b8" stroke="null" transform="matrix(0.615999440237617,0,0,0.6039994276910645,27.55288202414073,19.747648829296395) " id="svg_276" xlink:href="#p" y="96.469438" x="291.011757"/>
  <use fill="#b8b8b8" stroke="null" transform="matrix(0.615999440237617,0,0,0.6039994276910645,27.55288202414073,19.747648829296395) " id="svg_288" xlink:href="#p" y="48.469438" x="299.011757"/>
  <use fill="#b8b8b8" stroke="null" transform="matrix(0.615999440237617,0,0,0.6039994276910645,27.55288202414073,19.747648829296395) " id="svg_289" xlink:href="#p" y="96.469438" x="299.011757"/>
  <use fill="#b8b8b8" stroke="null" transform="matrix(0.615999440237617,0,0,0.6039994276910645,27.55288202414073,19.747648829296395) " id="svg_301" xlink:href="#p" y="48.469438" x="307.011757"/>
  <use fill="#b8b8b8" stroke="null" transform="matrix(0.615999440237617,0,0,0.6039994276910645,27.55288202414073,19.747648829296395) " id="svg_302" xlink:href="#p" y="56.469438" x="307.011757"/>
  <use fill="#b8b8b8" stroke="null" transform="matrix(0.615999440237617,0,0,0.6039994276910645,27.55288202414073,19.747648829296395) " id="svg_303" xlink:href="#p" y="64.469438" x="307.011757"/>
  <use fill="#b8b8b8" stroke="null" transform="matrix(0.615999440237617,0,0,0.6039994276910645,27.55288202414073,19.747648829296395) " id="svg_304" xlink:href="#p" y="72.469438" x="307.011757"/>
  <use fill="#b8b8b8" stroke="null" transform="matrix(0.615999440237617,0,0,0.6039994276910645,27.55288202414073,19.747648829296395) " id="svg_305" xlink:href="#p" y="80.469438" x="307.011757"/>
  <use fill="#b8b8b8" stroke="null" transform="matrix(0.615999440237617,0,0,0.6039994276910645,27.55288202414073,19.747648829296395) " id="svg_306" xlink:href="#p" y="88.469438" x="307.011757"/>
  <use fill="#b8b8b8" stroke="null" transform="matrix(0.615999440237617,0,0,0.6039994276910645,27.55288202414073,19.747648829296395) " id="svg_307" xlink:href="#p" y="96.469438" x="307.011757"/>
  <text xml:space="preserve" text-anchor="start" font-family="Helvetica, Arial, sans-serif" font-size="12" id="svg_314" y="205.203482" x="41.485768" stroke-opacity="null" stroke-width="0" stroke="null" fill="#b8b8b8">Нажмите, чтобы сканировать изображение</text>
 </g>
</svg>