<?xml version="1.0" encoding="utf-8"?>
<!-- Generator: Adobe Illustrator 18.1.1, SVG Export Plug-In . SVG Version: 6.00 Build 0)  -->
<svg version="1.1" id="Layer_1" xmlns="http://www.w3.org/2000/svg" xmlns:xlink="http://www.w3.org/1999/xlink" x="0px" y="0px"
	 viewBox="0 0 800 600" enable-background="new 0 0 800 600" xml:space="preserve">
<g>
	<rect x="190" y="214.3" fill="#FFFFFF" width="15" height="27"/>
	<rect x="220" y="214.3" fill="#FFFFFF" width="15" height="27"/>
	<rect x="100.2" y="497.3" fill="#FFFFFF" width="601" height="27"/>
	<rect x="270.6" y="266.3" fill="#FFFFFF" width="32" height="208"/>
	<path fill="#FFFFFF" d="M146.2,462.3c0,12.9,11.1,12,11.1,12s68.6,0,82,0c12.2,0,11-11.9,11-11.9V362.3h-56v27l23.9,0v58.1h-39.9
		l-0.1-153.1h40v37.1h32.1c0,0,0-39.7,0-53.1c0-12.5-11-12-11-12s-69.3,0-82,0c-12.3,0-11.3,12-11.3,12S146.2,448.2,146.2,462.3z"/>
	<path fill="#FFFFFF" d="M352.3,266.3c0,0-32.1-0.1-31.9,0l40,207.9h31l40.1-207.8h-32.2L376,413.3L352.3,266.3z"/>
	<path fill="#FFFFFF" d="M596.2,359.2v20.3l34,94.8h33.1l-34.2-93.9c0,0,0.7,0,15,0c15.4,0,14.1-12,14.1-12s0-77.5,0-90
		s-11.9-12.1-11.9-12.1h-90.1v208c0,0,32.1,0,32.1,0v-181h37.8v65.9H596.2z"/>
	<rect x="100" y="214.3" fill="#FFFFFF" width="45" height="27"/>
	<rect x="160" y="214.3" fill="#FFFFFF" width="15" height="27"/>
	<path fill="#FFFFFF" d="M701.2,214.3l-280.1,0v-1c13.7-4.7,62.5-16,69.4-56.4c0,0,4.5-24.7-16.3-40c-38.4-25.8-73.4,14.1-76,74.4
		h-1.1c0,0,3.6-74-41.9-104.3c-20-13-39.3-10.7-51.7-6.2c-20,8.3-26.8,21.9-30.1,28.7c-3.7,7.8-11.5,33.8,10.9,59.1
		c23.1,26.2,59.5,38.7,77.7,44.7l0,0.9H250.2v27h451V214.3z M384,197.3l-5.9,6.1c-10.1-1.8-44.5-11.8-66.9-32.7
		c-3.1-3.6-21.4-21.6-11-44.7c8.9-16.3,22.8-19.2,30.1-19.4c16.4-0.5,22,5.1,32.2,14.1c9.4,9.2,15.1,24.8,19.1,48
		C385.2,189.3,384,197.3,384,197.3z M409.4,197.2c0,0-0.3-31.9,13.5-52.7c16.2-20.3,34.4-9.6,34.8-9.2s15.6,8.1,13.1,27.9
		c0,0-0.5,26.3-54.6,41.1L409.4,197.2z"/>
	<polygon fill="#FFFFFF" points="534.3,294.4 534.3,266.5 534.3,266.4 448.2,266.3 448.2,474.4 535.2,474.4 535.2,446.4 
		480.2,446.4 480.2,381.4 527.2,381.4 527.2,354.4 480.2,354.4 480.3,294.4 	"/>
</g>
</svg>
